<?xml version="1.0" encoding="utf-8"?>
<!-- Generator: Adobe Illustrator 24.1.2, SVG Export Plug-In . SVG Version: 6.00 Build 0)  -->
<svg version="1.1" id="Camada_1" xmlns="http://www.w3.org/2000/svg" xmlns:xlink="http://www.w3.org/1999/xlink" x="0px" y="0px"
	 viewBox="0 0 31.9 32" style="enable-background:new 0 0 31.9 32;" xml:space="preserve">
<style type="text/css">
	.st0{fill:url(#SVGID_1_);}
	.st1{fill:url(#SVGID_2_);}
</style>
<linearGradient id="SVGID_1_" gradientUnits="userSpaceOnUse" x1="-913.1879" y1="538.7077" x2="-912.6033" y2="538.0001" gradientTransform="matrix(31.8754 0 0 -28.4068 29115.5469 15303.0752)">
	<stop  offset="0" style="stop-color:#FF0000"/>
	<stop  offset="0.1338" style="stop-color:#FB0000"/>
	<stop  offset="0.2605" style="stop-color:#F00000"/>
	<stop  offset="0.3843" style="stop-color:#DD0000"/>
	<stop  offset="0.5063" style="stop-color:#C20000"/>
	<stop  offset="0.6272" style="stop-color:#9F0000"/>
	<stop  offset="0.7472" style="stop-color:#750000"/>
	<stop  offset="0.8664" style="stop-color:#420000"/>
	<stop  offset="0.9822" style="stop-color:#090000"/>
	<stop  offset="1" style="stop-color:#000000"/>
</linearGradient>
<path class="st0" d="M31.8,4.7l-15,26.8c-0.3,0.6-1.1,0.6-1.4,0L0.1,4.7C-0.2,4.1,0.3,3.4,1,3.5l15,2.7c0.1,0,0.2,0,0.3,0l14.7-2.7
	C31.6,3.4,32.1,4.1,31.8,4.7z"/>
<linearGradient id="SVGID_2_" gradientUnits="userSpaceOnUse" x1="-878.0148" y1="537.3525" x2="-877.9454" y2="536.4847" gradientTransform="matrix(14.6164 0 0 -26.6459 12851.2207 14318.7461)">
	<stop  offset="0" style="stop-color:#FFF1EF"/>
	<stop  offset="1.641782e-02" style="stop-color:#000000"/>
	<stop  offset="2.367690e-02" style="stop-color:#090909"/>
	<stop  offset="6.331135e-02" style="stop-color:#373737"/>
	<stop  offset="0.108" style="stop-color:#626262"/>
	<stop  offset="0.156" style="stop-color:#888888"/>
	<stop  offset="0.2082" style="stop-color:#A8A8A8"/>
	<stop  offset="0.266" style="stop-color:#C4C4C4"/>
	<stop  offset="0.3312" style="stop-color:#DADADA"/>
	<stop  offset="0.4073" style="stop-color:#EBEBEB"/>
	<stop  offset="0.5014" style="stop-color:#F6F6F6"/>
	<stop  offset="0.6335" style="stop-color:#FDFDFD"/>
	<stop  offset="1" style="stop-color:#FFFFFF"/>
</linearGradient>
<path class="st1" d="M23.1,0L12,2.2c-0.2,0-0.3,0.2-0.3,0.4L11,14.1c0,0.2,0.2,0.4,0.4,0.4c0,0,0.1,0,0.1,0l3.1-0.7
	c0.3-0.1,0.5,0.2,0.5,0.5l-0.9,4.5c-0.1,0.3,0.2,0.6,0.5,0.5l1.9-0.6c0.3-0.1,0.6,0.2,0.5,0.5l-1.5,7.1c-0.1,0.4,0.5,0.7,0.7,0.3
	l0.2-0.3l9-18c0.2-0.3-0.1-0.6-0.4-0.6L22,8.2c-0.3,0.1-0.6-0.2-0.5-0.5l2.1-7.2C23.6,0.2,23.4-0.1,23.1,0L23.1,0z"/>
</svg>
